<mxfile host="app.diagrams.net" agent="Mozilla/5.0 (Windows NT 10.0; Win64; x64) AppleWebKit/537.36 (KHTML, like Gecko) Chrome/136.0.0.0 Safari/537.36 Edg/136.0.0.0" version="26.2.12">
  <diagram name="Page-1" id="BY09PsWykoWrBnHOsGLs">
    <mxGraphModel dx="1480" dy="814" grid="1" gridSize="10" guides="1" tooltips="1" connect="1" arrows="1" fold="1" page="1" pageScale="1" pageWidth="850" pageHeight="1100" math="0" shadow="0">
      <root>
        <mxCell id="0" />
        <mxCell id="1" parent="0" />
        <mxCell id="sSzqmtnvw3dCo1lSbnZO-1" value="Pemhaman&amp;nbsp;&lt;div&gt;Bisnis&amp;nbsp;&lt;/div&gt;" style="rounded=1;whiteSpace=wrap;html=1;" vertex="1" parent="1">
          <mxGeometry x="720" y="40" width="90" height="40" as="geometry" />
        </mxCell>
        <mxCell id="sSzqmtnvw3dCo1lSbnZO-2" value="" style="endArrow=classic;html=1;rounded=0;exitX=0;exitY=1;exitDx=0;exitDy=0;" edge="1" parent="1" source="sSzqmtnvw3dCo1lSbnZO-1">
          <mxGeometry width="50" height="50" relative="1" as="geometry">
            <mxPoint x="630" y="60" as="sourcePoint" />
            <mxPoint x="640" y="120" as="targetPoint" />
          </mxGeometry>
        </mxCell>
        <mxCell id="sSzqmtnvw3dCo1lSbnZO-4" value="apakah data sudah sesuai dengan kebutuhan bisnis?" style="rhombus;whiteSpace=wrap;html=1;" vertex="1" parent="1">
          <mxGeometry x="570" y="120" width="140" height="110" as="geometry" />
        </mxCell>
        <mxCell id="sSzqmtnvw3dCo1lSbnZO-5" value="" style="edgeStyle=segmentEdgeStyle;endArrow=classic;html=1;curved=0;rounded=0;endSize=8;startSize=8;entryX=0.5;entryY=1;entryDx=0;entryDy=0;exitX=0.5;exitY=1;exitDx=0;exitDy=0;" edge="1" parent="1" source="sSzqmtnvw3dCo1lSbnZO-4" target="sSzqmtnvw3dCo1lSbnZO-1">
          <mxGeometry width="50" height="50" relative="1" as="geometry">
            <mxPoint x="640" y="180" as="sourcePoint" />
            <mxPoint x="690" y="130" as="targetPoint" />
            <Array as="points">
              <mxPoint x="765" y="230" />
            </Array>
          </mxGeometry>
        </mxCell>
        <mxCell id="sSzqmtnvw3dCo1lSbnZO-6" value="Tidak" style="text;html=1;align=center;verticalAlign=middle;resizable=0;points=[];autosize=1;strokeColor=none;fillColor=none;" vertex="1" parent="1">
          <mxGeometry x="670" y="150" width="50" height="30" as="geometry" />
        </mxCell>
        <mxCell id="sSzqmtnvw3dCo1lSbnZO-7" value="Data Prepocessing" style="rhombus;whiteSpace=wrap;html=1;" vertex="1" parent="1">
          <mxGeometry x="410" y="200" width="140" height="100" as="geometry" />
        </mxCell>
        <mxCell id="sSzqmtnvw3dCo1lSbnZO-8" value="" style="endArrow=classic;html=1;rounded=0;exitX=0;exitY=0.5;exitDx=0;exitDy=0;entryX=0.5;entryY=0;entryDx=0;entryDy=0;" edge="1" parent="1" source="sSzqmtnvw3dCo1lSbnZO-4" target="sSzqmtnvw3dCo1lSbnZO-7">
          <mxGeometry width="50" height="50" relative="1" as="geometry">
            <mxPoint x="420" y="260" as="sourcePoint" />
            <mxPoint x="440" y="200" as="targetPoint" />
          </mxGeometry>
        </mxCell>
        <mxCell id="sSzqmtnvw3dCo1lSbnZO-9" value="Tidak" style="text;html=1;align=center;verticalAlign=middle;resizable=0;points=[];autosize=1;strokeColor=none;fillColor=none;" vertex="1" parent="1">
          <mxGeometry x="685" y="198" width="50" height="30" as="geometry" />
        </mxCell>
        <mxCell id="sSzqmtnvw3dCo1lSbnZO-10" value="YA" style="text;html=1;align=center;verticalAlign=middle;resizable=0;points=[];autosize=1;strokeColor=none;fillColor=none;" vertex="1" parent="1">
          <mxGeometry x="500" y="158" width="40" height="30" as="geometry" />
        </mxCell>
        <mxCell id="sSzqmtnvw3dCo1lSbnZO-11" value="Apakah data yang sudah di proses sudah cocok dengan model?" style="rhombus;whiteSpace=wrap;html=1;" vertex="1" parent="1">
          <mxGeometry x="250" y="280" width="140" height="100" as="geometry" />
        </mxCell>
        <mxCell id="sSzqmtnvw3dCo1lSbnZO-12" value="" style="endArrow=classic;html=1;rounded=0;entryX=0.5;entryY=0;entryDx=0;entryDy=0;exitX=0;exitY=0.5;exitDx=0;exitDy=0;" edge="1" parent="1" source="sSzqmtnvw3dCo1lSbnZO-7" target="sSzqmtnvw3dCo1lSbnZO-11">
          <mxGeometry width="50" height="50" relative="1" as="geometry">
            <mxPoint x="330" y="260" as="sourcePoint" />
            <mxPoint x="380" y="210" as="targetPoint" />
          </mxGeometry>
        </mxCell>
        <mxCell id="sSzqmtnvw3dCo1lSbnZO-14" value="" style="edgeStyle=segmentEdgeStyle;endArrow=classic;html=1;curved=0;rounded=0;endSize=8;startSize=8;exitX=0.5;exitY=1;exitDx=0;exitDy=0;entryX=0.5;entryY=1;entryDx=0;entryDy=0;" edge="1" parent="1" source="sSzqmtnvw3dCo1lSbnZO-11" target="sSzqmtnvw3dCo1lSbnZO-7">
          <mxGeometry width="50" height="50" relative="1" as="geometry">
            <mxPoint x="330" y="260" as="sourcePoint" />
            <mxPoint x="380" y="210" as="targetPoint" />
          </mxGeometry>
        </mxCell>
        <mxCell id="sSzqmtnvw3dCo1lSbnZO-15" value="Tidak" style="text;html=1;align=center;verticalAlign=middle;resizable=0;points=[];autosize=1;strokeColor=none;fillColor=none;" vertex="1" parent="1">
          <mxGeometry x="395" y="348" width="50" height="30" as="geometry" />
        </mxCell>
        <mxCell id="sSzqmtnvw3dCo1lSbnZO-18" value="Apakah Evaluasi sudah memuaskan?" style="rhombus;whiteSpace=wrap;html=1;" vertex="1" parent="1">
          <mxGeometry x="690" y="420" width="125" height="100" as="geometry" />
        </mxCell>
        <mxCell id="sSzqmtnvw3dCo1lSbnZO-19" value="" style="edgeStyle=segmentEdgeStyle;endArrow=classic;html=1;curved=0;rounded=0;endSize=8;startSize=8;exitX=0;exitY=0.5;exitDx=0;exitDy=0;entryX=0;entryY=0.5;entryDx=0;entryDy=0;" edge="1" parent="1" source="sSzqmtnvw3dCo1lSbnZO-11" target="sSzqmtnvw3dCo1lSbnZO-18">
          <mxGeometry width="50" height="50" relative="1" as="geometry">
            <mxPoint x="480" y="260" as="sourcePoint" />
            <mxPoint x="530" y="210" as="targetPoint" />
            <Array as="points">
              <mxPoint x="250" y="480" />
              <mxPoint x="690" y="480" />
            </Array>
          </mxGeometry>
        </mxCell>
        <mxCell id="sSzqmtnvw3dCo1lSbnZO-20" value="YA" style="text;html=1;align=center;verticalAlign=middle;resizable=0;points=[];autosize=1;strokeColor=none;fillColor=none;" vertex="1" parent="1">
          <mxGeometry x="270" y="438" width="40" height="30" as="geometry" />
        </mxCell>
        <mxCell id="sSzqmtnvw3dCo1lSbnZO-21" value="" style="endArrow=classic;html=1;rounded=0;exitX=0.5;exitY=0;exitDx=0;exitDy=0;entryX=1;entryY=1;entryDx=0;entryDy=0;" edge="1" parent="1" source="sSzqmtnvw3dCo1lSbnZO-18" target="sSzqmtnvw3dCo1lSbnZO-1">
          <mxGeometry width="50" height="50" relative="1" as="geometry">
            <mxPoint x="480" y="260" as="sourcePoint" />
            <mxPoint x="530" y="210" as="targetPoint" />
          </mxGeometry>
        </mxCell>
        <mxCell id="sSzqmtnvw3dCo1lSbnZO-22" value="Tidak" style="text;html=1;align=center;verticalAlign=middle;resizable=0;points=[];autosize=1;strokeColor=none;fillColor=none;" vertex="1" parent="1">
          <mxGeometry x="765" y="298" width="50" height="30" as="geometry" />
        </mxCell>
        <mxCell id="sSzqmtnvw3dCo1lSbnZO-23" value="" style="edgeStyle=segmentEdgeStyle;endArrow=classic;html=1;curved=0;rounded=0;endSize=8;startSize=8;exitX=0.5;exitY=1;exitDx=0;exitDy=0;" edge="1" parent="1" source="sSzqmtnvw3dCo1lSbnZO-18">
          <mxGeometry width="50" height="50" relative="1" as="geometry">
            <mxPoint x="480" y="690" as="sourcePoint" />
            <mxPoint x="530" y="640" as="targetPoint" />
            <Array as="points">
              <mxPoint x="753" y="640" />
            </Array>
          </mxGeometry>
        </mxCell>
        <mxCell id="sSzqmtnvw3dCo1lSbnZO-24" value="Deployment" style="ellipse;whiteSpace=wrap;html=1;" vertex="1" parent="1">
          <mxGeometry x="410" y="600" width="120" height="80" as="geometry" />
        </mxCell>
        <mxCell id="sSzqmtnvw3dCo1lSbnZO-25" value="Ya" style="text;html=1;align=center;verticalAlign=middle;resizable=0;points=[];autosize=1;strokeColor=none;fillColor=none;" vertex="1" parent="1">
          <mxGeometry x="600" y="608" width="40" height="30" as="geometry" />
        </mxCell>
      </root>
    </mxGraphModel>
  </diagram>
</mxfile>
